<svg xmlns="http://www.w3.org/2000/svg" viewBox="0 -0.5 182 117" shape-rendering="crispEdges">
<metadata>Made with Pixels to Svg https://codepen.io/shshaw/pen/XbxvNj</metadata>
<path stroke="#565464" d="M1 0h1M180 0h1M0 1h1M181 1h1M3 3h1M178 3h1M3 113h1M178 113h1M0 115h1M181 115h1M1 116h1M180 116h1" />
<path stroke="#68657a" d="M2 0h1M179 0h1M1 1h1M180 1h1M0 2h1M181 2h1M4 3h4M173 3h5M3 4h1M178 4h1M3 5h1M178 5h1M3 6h1M178 6h1M3 7h1M178 7h1M3 8h1M178 108h1M3 109h1M178 109h1M3 110h1M178 110h1M3 111h1M178 111h1M3 112h1M178 112h1M4 113h5M174 113h4M0 114h1M181 114h1M1 115h1M180 115h1M2 116h1M179 116h1" />
<path stroke="#7d7a90" d="M3 0h176M2 2h1M179 2h1M0 3h1M8 3h165M181 3h1M0 4h1M181 4h1M0 5h1M181 5h1M0 6h1M181 6h1M0 7h1M181 7h1M0 8h1M178 8h1M181 8h1M0 9h1M3 9h1M178 9h1M181 9h1M0 10h1M3 10h1M178 10h1M181 10h1M0 11h1M3 11h1M178 11h1M181 11h1M0 12h1M3 12h1M178 12h1M181 12h1M0 13h1M3 13h1M178 13h1M181 13h1M0 14h1M3 14h1M178 14h1M181 14h1M0 15h1M3 15h1M178 15h1M181 15h1M0 16h1M3 16h1M178 16h1M181 16h1M0 17h1M3 17h1M178 17h1M181 17h1M0 18h1M3 18h1M178 18h1M181 18h1M0 19h1M3 19h1M178 19h1M181 19h1M0 20h1M3 20h1M178 20h1M181 20h1M0 21h1M3 21h1M178 21h1M181 21h1M0 22h1M3 22h1M178 22h1M181 22h1M0 23h1M3 23h1M178 23h1M181 23h1M0 24h1M3 24h1M178 24h1M181 24h1M0 25h1M3 25h1M178 25h1M181 25h1M0 26h1M3 26h1M178 26h1M181 26h1M0 27h1M3 27h1M178 27h1M181 27h1M0 28h1M3 28h1M178 28h1M181 28h1M0 29h1M3 29h1M178 29h1M181 29h1M0 30h1M3 30h1M178 30h1M181 30h1M0 31h1M3 31h1M178 31h1M181 31h1M0 32h1M3 32h1M178 32h1M181 32h1M0 33h1M3 33h1M178 33h1M181 33h1M0 34h1M3 34h1M178 34h1M181 34h1M0 35h1M3 35h1M178 35h1M181 35h1M0 36h1M3 36h1M178 36h1M181 36h1M0 37h1M3 37h1M178 37h1M181 37h1M0 38h1M3 38h1M178 38h1M181 38h1M0 39h1M3 39h1M178 39h1M181 39h1M0 40h1M3 40h1M178 40h1M181 40h1M0 41h1M3 41h1M178 41h1M181 41h1M0 42h1M3 42h1M178 42h1M181 42h1M0 43h1M3 43h1M178 43h1M181 43h1M0 44h1M3 44h1M178 44h1M181 44h1M0 45h1M3 45h1M178 45h1M181 45h1M0 46h1M3 46h1M178 46h1M181 46h1M0 47h1M3 47h1M178 47h1M181 47h1M0 48h1M3 48h1M178 48h1M181 48h1M0 49h1M3 49h1M178 49h1M181 49h1M0 50h1M3 50h1M178 50h1M181 50h1M0 51h1M3 51h1M178 51h1M181 51h1M0 52h1M3 52h1M178 52h1M181 52h1M0 53h1M3 53h1M178 53h1M181 53h1M0 54h1M3 54h1M178 54h1M181 54h1M0 55h1M3 55h1M178 55h1M181 55h1M0 56h1M3 56h1M178 56h1M181 56h1M0 57h1M3 57h1M178 57h1M181 57h1M0 58h1M3 58h1M178 58h1M181 58h1M0 59h1M3 59h1M178 59h1M181 59h1M0 60h1M3 60h1M178 60h1M181 60h1M0 61h1M3 61h1M178 61h1M181 61h1M0 62h1M3 62h1M178 62h1M181 62h1M0 63h1M3 63h1M178 63h1M181 63h1M0 64h1M3 64h1M178 64h1M181 64h1M0 65h1M3 65h1M178 65h1M181 65h1M0 66h1M3 66h1M178 66h1M181 66h1M0 67h1M3 67h1M178 67h1M181 67h1M0 68h1M3 68h1M178 68h1M181 68h1M0 69h1M3 69h1M178 69h1M181 69h1M0 70h1M3 70h1M178 70h1M181 70h1M0 71h1M3 71h1M178 71h1M181 71h1M0 72h1M3 72h1M178 72h1M181 72h1M0 73h1M3 73h1M178 73h1M181 73h1M0 74h1M3 74h1M178 74h1M181 74h1M0 75h1M3 75h1M178 75h1M181 75h1M0 76h1M3 76h1M178 76h1M181 76h1M0 77h1M3 77h1M178 77h1M181 77h1M0 78h1M3 78h1M178 78h1M181 78h1M0 79h1M3 79h1M178 79h1M181 79h1M0 80h1M3 80h1M178 80h1M181 80h1M0 81h1M3 81h1M178 81h1M181 81h1M0 82h1M3 82h1M178 82h1M181 82h1M0 83h1M3 83h1M178 83h1M181 83h1M0 84h1M3 84h1M178 84h1M181 84h1M0 85h1M3 85h1M178 85h1M181 85h1M0 86h1M3 86h1M178 86h1M181 86h1M0 87h1M3 87h1M178 87h1M181 87h1M0 88h1M3 88h1M178 88h1M181 88h1M0 89h1M3 89h1M178 89h1M181 89h1M0 90h1M3 90h1M178 90h1M181 90h1M0 91h1M3 91h1M178 91h1M181 91h1M0 92h1M3 92h1M178 92h1M181 92h1M0 93h1M3 93h1M178 93h1M181 93h1M0 94h1M3 94h1M178 94h1M181 94h1M0 95h1M3 95h1M178 95h1M181 95h1M0 96h1M3 96h1M178 96h1M181 96h1M0 97h1M3 97h1M178 97h1M181 97h1M0 98h1M3 98h1M178 98h1M181 98h1M0 99h1M3 99h1M178 99h1M181 99h1M0 100h1M3 100h1M178 100h1M181 100h1M0 101h1M3 101h1M178 101h1M181 101h1M0 102h1M3 102h1M178 102h1M181 102h1M0 103h1M3 103h1M178 103h1M181 103h1M0 104h1M3 104h1M178 104h1M181 104h1M0 105h1M3 105h1M178 105h1M181 105h1M0 106h1M3 106h1M178 106h1M181 106h1M0 107h1M3 107h1M178 107h1M181 107h1M0 108h1M3 108h1M181 108h1M0 109h1M181 109h1M0 110h1M181 110h1M0 111h1M181 111h1M0 112h1M181 112h1M0 113h1M9 113h165M181 113h1M2 114h1M179 114h1M3 116h176" />
<path stroke="#9395b4" d="M2 1h1M179 1h1M1 2h1M3 2h176M180 2h1M2 3h1M179 3h1M2 4h1M179 4h1M2 5h1M179 5h1M2 6h1M179 6h1M2 7h1M179 7h1M2 8h1M179 8h1M2 9h1M179 9h1M2 10h1M179 10h1M2 11h1M179 11h1M2 12h1M179 12h1M2 13h1M179 13h1M2 14h1M179 14h1M2 15h1M179 15h1M2 16h1M179 16h1M2 17h1M179 17h1M2 18h1M179 18h1M2 19h1M179 19h1M2 20h1M179 20h1M2 21h1M179 21h1M2 22h1M179 22h1M2 23h1M179 23h1M2 24h1M179 24h1M2 25h1M179 25h1M2 26h1M179 26h1M2 27h1M179 27h1M2 28h1M179 28h1M2 29h1M179 29h1M2 30h1M179 30h1M2 31h1M179 31h1M2 32h1M179 32h1M2 33h1M179 33h1M2 34h1M179 34h1M2 35h1M179 35h1M2 36h1M179 36h1M2 37h1M179 37h1M2 38h1M179 38h1M2 39h1M179 39h1M2 40h1M179 40h1M2 41h1M179 41h1M2 42h1M179 42h1M2 43h1M179 43h1M2 44h1M179 44h1M2 45h1M179 45h1M2 46h1M179 46h1M2 47h1M179 47h1M2 48h1M179 48h1M2 49h1M179 49h1M2 50h1M179 50h1M2 51h1M179 51h1M2 52h1M179 52h1M2 53h1M179 53h1M2 54h1M179 54h1M2 55h1M179 55h1M2 56h1M179 56h1M2 57h1M179 57h1M2 58h1M179 58h1M2 59h1M179 59h1M2 60h1M179 60h1M2 61h1M179 61h1M2 62h1M179 62h1M2 63h1M179 63h1M2 64h1M179 64h1M2 65h1M179 65h1M2 66h1M179 66h1M2 67h1M179 67h1M2 68h1M179 68h1M2 69h1M179 69h1M2 70h1M179 70h1M2 71h1M179 71h1M2 72h1M179 72h1M2 73h1M179 73h1M2 74h1M179 74h1M2 75h1M179 75h1M2 76h1M179 76h1M2 77h1M179 77h1M2 78h1M179 78h1M2 79h1M179 79h1M2 80h1M179 80h1M2 81h1M179 81h1M2 82h1M179 82h1M2 83h1M179 83h1M2 84h1M179 84h1M2 85h1M179 85h1M2 86h1M179 86h1M2 87h1M179 87h1M2 88h1M179 88h1M2 89h1M179 89h1M2 90h1M179 90h1M2 91h1M179 91h1M2 92h1M179 92h1M2 93h1M179 93h1M2 94h1M179 94h1M2 95h1M179 95h1M2 96h1M179 96h1M2 97h1M179 97h1M2 98h1M179 98h1M2 99h1M179 99h1M2 100h1M179 100h1M2 101h1M179 101h1M2 102h1M179 102h1M2 103h1M179 103h1M2 104h1M179 104h1M2 105h1M179 105h1M2 106h1M179 106h1M2 107h1M179 107h1M2 108h1M179 108h1M2 109h1M179 109h1M2 110h1M179 110h1M2 111h1M179 111h1M2 112h1M179 112h1M2 113h1M179 113h1M1 114h1M3 114h176M180 114h1M2 115h1M179 115h1" />
<path stroke="#acaec5" d="M3 1h176M1 3h1M180 3h1M1 4h1M180 4h1M1 5h1M180 5h1M1 6h1M180 6h1M1 7h1M180 7h1M1 8h1M180 8h1M1 9h1M180 9h1M1 10h1M180 10h1M1 11h1M180 11h1M1 12h1M180 12h1M1 13h1M180 13h1M1 14h1M180 14h1M1 15h1M180 15h1M1 16h1M180 16h1M1 17h1M180 17h1M1 18h1M180 18h1M1 19h1M180 19h1M1 20h1M180 20h1M1 21h1M180 21h1M1 22h1M180 22h1M1 23h1M180 23h1M1 24h1M180 24h1M1 25h1M180 25h1M1 26h1M180 26h1M1 27h1M180 27h1M1 28h1M180 28h1M1 29h1M180 29h1M1 30h1M180 30h1M1 31h1M180 31h1M1 32h1M180 32h1M1 33h1M180 33h1M1 34h1M180 34h1M1 35h1M180 35h1M1 36h1M180 36h1M1 37h1M180 37h1M1 38h1M180 38h1M1 39h1M180 39h1M1 40h1M180 40h1M1 41h1M180 41h1M1 42h1M180 42h1M1 43h1M180 43h1M1 44h1M180 44h1M1 45h1M180 45h1M1 46h1M180 46h1M1 47h1M180 47h1M1 48h1M180 48h1M1 49h1M180 49h1M1 50h1M180 50h1M1 51h1M180 51h1M1 52h1M180 52h1M1 53h1M180 53h1M1 54h1M180 54h1M1 55h1M180 55h1M1 56h1M180 56h1M1 57h1M180 57h1M1 58h1M180 58h1M1 59h1M180 59h1M1 60h1M180 60h1M1 61h1M180 61h1M1 62h1M180 62h1M1 63h1M180 63h1M1 64h1M180 64h1M1 65h1M180 65h1M1 66h1M180 66h1M1 67h1M180 67h1M1 68h1M180 68h1M1 69h1M180 69h1M1 70h1M180 70h1M1 71h1M180 71h1M1 72h1M180 72h1M1 73h1M180 73h1M1 74h1M180 74h1M1 75h1M180 75h1M1 76h1M180 76h1M1 77h1M180 77h1M1 78h1M180 78h1M1 79h1M180 79h1M1 80h1M180 80h1M1 81h1M180 81h1M1 82h1M180 82h1M1 83h1M180 83h1M1 84h1M180 84h1M1 85h1M180 85h1M1 86h1M180 86h1M1 87h1M180 87h1M1 88h1M180 88h1M1 89h1M180 89h1M1 90h1M180 90h1M1 91h1M180 91h1M1 92h1M180 92h1M1 93h1M180 93h1M1 94h1M180 94h1M1 95h1M180 95h1M1 96h1M180 96h1M1 97h1M180 97h1M1 98h1M180 98h1M1 99h1M180 99h1M1 100h1M180 100h1M1 101h1M180 101h1M1 102h1M180 102h1M1 103h1M180 103h1M1 104h1M180 104h1M1 105h1M180 105h1M1 106h1M180 106h1M1 107h1M180 107h1M1 108h1M180 108h1M1 109h1M180 109h1M1 110h1M180 110h1M1 111h1M180 111h1M1 112h1M180 112h1M1 113h1M180 113h1M3 115h176" />
<path stroke="#383838" d="M4 4h174M4 5h1M177 5h1M4 6h1M177 6h1M4 7h1M177 7h1M4 8h1M177 8h1M4 9h1M177 9h1M4 10h1M177 10h1M4 11h1M177 11h1M4 12h1M177 12h1M4 13h1M177 13h1M4 14h1M177 14h1M4 15h1M177 15h1M4 16h1M177 16h1M4 17h1M177 17h1M4 18h1M177 18h1M4 19h1M177 19h1M4 20h1M177 20h1M4 21h1M177 21h1M4 22h1M177 22h1M4 23h1M177 23h1M4 24h1M177 24h1M4 25h1M177 25h1M4 26h1M177 26h1M4 27h1M177 27h1M4 28h1M177 28h1M4 29h1M177 29h1M4 30h1M177 30h1M4 31h1M177 31h1M4 32h1M177 32h1M4 33h1M177 33h1M4 34h1M177 34h1M4 35h1M177 35h1M4 36h1M177 36h1M4 37h1M177 37h1M4 38h1M177 38h1M4 39h1M177 39h1M4 40h1M177 40h1M4 41h1M177 41h1M4 42h1M177 42h1M4 43h1M177 43h1M4 44h1M177 44h1M4 45h1M177 45h1M4 46h1M177 46h1M4 47h1M177 47h1M4 48h1M177 48h1M4 49h1M177 49h1M4 50h1M177 50h1M4 51h1M177 51h1M4 52h1M177 52h1M4 53h1M177 53h1M4 54h1M177 54h1M4 55h1M177 55h1M4 56h1M177 56h1M4 57h1M177 57h1M4 58h1M177 58h1M4 59h1M177 59h1M4 60h1M177 60h1M4 61h1M177 61h1M4 62h1M177 62h1M4 63h1M177 63h1M4 64h1M177 64h1M4 65h1M177 65h1M4 66h1M177 66h1M4 67h1M177 67h1M4 68h1M177 68h1M4 69h1M177 69h1M4 70h1M177 70h1M4 71h1M177 71h1M4 72h1M177 72h1M4 73h1M177 73h1M4 74h1M177 74h1M4 75h1M177 75h1M4 76h1M177 76h1M4 77h1M177 77h1M4 78h1M177 78h1M4 79h1M177 79h1M4 80h1M177 80h1M4 81h1M177 81h1M4 82h1M177 82h1M4 83h1M177 83h1M4 84h1M177 84h1M4 85h1M177 85h1M4 86h1M177 86h1M4 87h1M177 87h1M4 88h1M177 88h1M4 89h1M177 89h1M4 90h1M177 90h1M4 91h1M177 91h1M4 92h1M177 92h1M4 93h1M177 93h1M4 94h1M177 94h1M4 95h1M177 95h1M4 96h1M177 96h1M4 97h1M177 97h1M4 98h1M177 98h1M4 99h1M177 99h1M4 100h1M177 100h1M4 101h1M177 101h1M4 102h1M177 102h1M4 103h1M177 103h1M4 104h1M177 104h1M4 105h1M177 105h1M4 106h1M177 106h1M4 107h1M177 107h1M4 108h1M177 108h1M4 109h1M177 109h1M4 110h1M177 110h1M4 111h1M177 111h1M4 112h174" />
<path stroke="#7462a5" d="M5 5h1M176 5h1M5 111h1M176 111h1" />
<path stroke="#9787c1" d="M6 5h170M5 6h1M175 6h2M5 7h1M175 7h2M5 8h1M175 8h2M5 9h1M175 9h2M5 10h1M175 10h2M5 11h1M175 11h2M5 12h1M175 12h2M5 13h1M175 13h2M5 14h1M175 14h2M5 15h1M175 15h2M5 16h1M175 16h2M5 17h1M175 17h2M5 18h1M175 18h2M5 19h1M175 19h2M5 20h1M175 20h2M5 21h1M175 21h2M5 22h1M175 22h2M5 23h1M175 23h2M5 24h1M175 24h2M5 25h1M175 25h2M5 26h1M175 26h2M5 27h1M175 27h2M5 28h1M175 28h2M5 29h1M175 29h2M5 30h1M175 30h2M5 31h1M175 31h2M5 32h1M175 32h2M5 33h1M175 33h2M5 34h1M175 34h2M5 35h1M175 35h2M5 36h1M175 36h2M5 37h1M175 37h2M5 38h1M175 38h2M5 39h1M175 39h2M5 40h1M175 40h2M5 41h1M175 41h2M5 42h1M175 42h2M5 43h1M175 43h2M5 44h1M175 44h2M5 45h1M175 45h2M5 46h1M175 46h2M5 47h1M175 47h2M5 48h1M175 48h2M5 49h1M175 49h2M5 50h1M175 50h2M5 51h1M175 51h2M5 52h1M175 52h2M5 53h1M175 53h2M5 54h1M175 54h2M5 55h1M175 55h2M5 56h1M175 56h2M5 57h1M175 57h2M5 58h1M175 58h2M5 59h1M175 59h2M5 60h1M175 60h2M5 61h1M175 61h2M5 62h1M175 62h2M5 63h1M175 63h2M5 64h1M175 64h2M5 65h1M175 65h2M5 66h1M175 66h2M5 67h1M175 67h2M5 68h1M175 68h2M5 69h1M175 69h2M5 70h1M175 70h2M5 71h1M175 71h2M5 72h1M175 72h2M5 73h1M175 73h2M5 74h1M175 74h2M5 75h1M175 75h2M5 76h1M175 76h2M5 77h1M175 77h2M5 78h1M175 78h2M5 79h1M175 79h2M5 80h1M175 80h2M5 81h1M175 81h2M5 82h1M175 82h2M5 83h1M175 83h2M5 84h1M175 84h2M5 85h1M175 85h2M5 86h1M175 86h2M5 87h1M175 87h2M5 88h1M175 88h2M5 89h1M175 89h2M5 90h1M175 90h2M5 91h1M175 91h2M5 92h1M175 92h2M5 93h1M175 93h2M5 94h1M175 94h2M5 95h1M175 95h2M5 96h1M175 96h2M5 97h1M175 97h2M5 98h1M175 98h2M5 99h1M175 99h2M5 100h1M175 100h2M5 101h1M175 101h2M5 102h1M175 102h2M5 103h1M175 103h2M5 104h1M175 104h2M5 105h1M175 105h2M5 106h1M175 106h2M5 107h1M175 107h2M5 108h1M175 108h2M5 109h1M175 109h2M5 110h172M6 111h170" />
<path stroke="#aa9dcf" d="M6 6h1M174 6h1M6 109h1M174 109h1" />
<path stroke="#c2b7df" d="M7 6h167M6 7h169M6 8h169M6 9h169M6 10h169M6 11h169M6 12h169M6 13h169M6 14h169M6 15h169M6 16h169M6 17h169M6 18h169M6 19h169M6 20h169M6 21h169M6 22h169M6 23h169M6 24h169M6 25h169M6 26h169M6 27h169M6 28h169M6 29h169M6 30h169M6 31h169M6 32h169M6 33h169M6 34h169M6 35h169M6 36h169M6 37h169M6 38h169M6 39h169M6 40h169M6 41h169M6 42h169M6 43h169M6 44h169M6 45h169M6 46h169M6 47h169M6 48h169M6 49h169M6 50h169M6 51h169M6 52h169M6 53h169M6 54h169M6 55h169M6 56h169M6 57h169M6 58h169M6 59h169M6 60h169M6 61h169M6 62h169M6 63h169M6 64h169M6 65h169M6 66h169M6 67h169M6 68h169M6 69h169M6 70h169M6 71h169M6 72h169M6 73h169M6 74h169M6 75h169M6 76h169M6 77h169M6 78h169M6 79h169M6 80h169M6 81h169M6 82h169M6 83h169M6 84h169M6 85h169M6 86h169M6 87h169M6 88h169M6 89h169M6 90h169M6 91h169M6 92h169M6 93h169M6 94h169M6 95h169M6 96h169M6 97h169M6 98h169M6 99h169M6 100h169M6 101h169M6 102h169M6 103h169M6 104h169M6 105h169M6 106h169M6 107h169M6 108h169M7 109h167" />
</svg>