<svg xmlns="http://www.w3.org/2000/svg" viewBox="0 -0.5 29 26" shape-rendering="crispEdges">
<metadata>Made with Pixels to Svg https://codepen.io/shshaw/pen/XbxvNj</metadata>
<path stroke="#cfa0ad" d="M20 0h1M10 1h1M9 2h1M22 2h1M9 3h3M19 3h1M22 3h1M9 4h1M18 4h4M6 5h1M10 5h2M19 5h1M22 5h1M5 6h1M12 6h1M16 6h3M22 6h1M5 7h2M17 7h1M24 7h1M7 8h2M10 8h1M19 8h6M8 9h2M17 9h3M23 9h2M15 10h1M2 11h1M4 11h3M9 11h2M21 11h1M3 12h1M6 12h3M20 12h1M3 13h1M10 13h1M19 13h3M3 14h1M7 14h3M18 14h2M4 15h5M11 15h1M24 15h1M1 16h2M4 16h1M6 16h1M8 16h2M11 16h1M19 16h2M23 16h2M26 16h2M2 17h2M9 17h1M23 17h2M8 18h1M11 18h1M24 18h1M7 19h1M16 19h1M23 19h1M7 20h1M9 20h1M21 20h2M7 21h2M10 21h1M12 21h1M17 21h1M19 21h2M8 22h1M10 22h2M13 22h2M18 22h3M11 23h2M19 23h1" />
<path stroke="#d2a5b1" d="M21 0h1M9 1h1M23 3h1M10 4h3M22 4h3M5 5h1M7 5h3M12 5h1M17 5h2M23 5h1M6 6h3M25 6h1M7 7h2M9 8h1M25 8h1M10 9h1M20 9h3M25 9h1M7 10h5M19 10h4M3 11h1M7 11h2M20 11h1M2 12h1M1 13h2M10 14h2M20 14h3M3 15h1M9 15h2M19 15h2M23 15h1M27 15h1M3 16h1M5 16h1M10 16h1M28 16h1M1 17h1M10 17h2M25 17h3M2 18h1M9 18h2M16 18h1M23 18h1M25 18h2M8 19h1M17 19h1M24 19h3M6 20h1M8 20h1M17 20h1M26 20h1M9 21h1M14 21h1M21 21h2M12 22h1M21 22h3M10 23h1M13 23h1M20 23h2M13 24h1" />
<path stroke="#ddbbc4" d="M22 0h1M22 1h2M8 2h1M23 2h1M6 3h1M5 4h1M4 5h1M20 5h1M4 6h1M9 6h1M21 6h1M9 7h1M25 7h1M26 8h1M1 11h1M1 12h1M4 12h2M1 15h1M21 15h2M28 17h1M27 18h1M9 19h1M10 20h1M6 21h1M11 21h1M7 22h1M9 24h1M11 24h2M19 24h1" />
<path stroke="#c18595" d="M11 1h1M12 2h1M18 2h1M13 3h1M17 3h1M7 4h1M13 5h1M24 5h1M13 6h1M23 7h1M6 8h1M4 10h1M12 12h1M22 12h1M12 13h1M24 13h1M26 14h1M2 15h1M5 17h1M12 17h1M12 18h1M6 19h1M5 20h1M5 21h1M23 21h1M15 22h1" />
<path stroke="#bb7789" d="M18 1h2M13 2h1M17 2h1M16 3h1M8 4h1M15 4h1M14 6h1M24 6h1M13 7h1M16 7h1M16 8h1M7 9h1M15 9h1M5 10h2M12 10h1M16 11h1M23 12h1M16 13h1M25 13h1M2 14h1M12 14h1M15 14h1M12 15h1M12 16h1M6 17h1M15 17h3M20 17h1M22 17h1M6 18h1M18 18h1M21 19h1M19 20h1M23 20h2M16 21h1M9 22h1M17 22h1M8 23h1M14 23h1" />
<path stroke="#c892a1" d="M20 1h2M10 2h2M19 2h3M8 3h1M12 3h1M18 3h1M20 3h2M6 4h1M13 4h1M16 4h2M15 5h2M21 5h1M15 6h1M23 6h1M12 7h1M21 7h2M5 8h1M11 9h1M16 9h1M3 10h1M18 10h1M23 10h2M11 11h2M15 11h1M19 11h1M22 11h2M21 12h1M11 13h1M17 13h2M22 13h2M16 14h2M23 14h3M18 15h1M25 15h2M7 16h1M25 16h1M4 17h1M7 17h2M3 18h2M7 18h1M15 18h1M17 18h1M22 18h1M22 19h1M12 20h1M20 20h1M25 20h1M13 21h1M15 21h1M18 21h1M9 23h1M18 23h1" />
<path stroke="#e4c9d0" d="M24 3h1M4 7h1M26 7h1M2 10h1M0 15h1M0 16h1M7 23h1M20 24h1M10 25h1" />
<path stroke="#cdcdcf" d="M10 6h2M19 6h2M10 7h2M18 7h3M11 8h1M17 8h2M9 12h3M4 13h6M4 14h3M21 16h2M10 19h2M11 20h1" />
<path stroke="#52769a" d="M14 7h1M12 8h1M14 9h1M14 10h1M14 11h1M14 12h1M17 12h1M14 13h1M15 15h2M18 16h1M14 19h1M19 19h1M14 20h1M16 20h1" />
<path stroke="#383838" d="M15 7h1M13 8h3M12 9h2M13 10h1M16 10h2M13 11h1M17 11h2M13 12h1M15 12h2M18 12h2M13 13h1M15 13h1M13 14h2M13 15h2M17 15h1M13 16h5M13 17h2M18 17h2M21 17h1M13 18h2M19 18h3M12 19h2M15 19h1M18 19h1M20 19h1M13 20h1M15 20h1M18 20h1" />
<path stroke="#ead6dc" d="M27 19h1M6 22h1M22 23h1M10 24h1M12 25h1" />
<path stroke="#f8f1f3" d="M11 25h1" />
</svg>