<svg xmlns="http://www.w3.org/2000/svg" viewBox="0 -0.5 64 64" shape-rendering="crispEdges">
<metadata>Made with Pixels to Svg https://codepen.io/shshaw/pen/XbxvNj</metadata>
<path stroke="#cfa0ad" d="M26 35h1M16 37h1M28 37h1M15 38h3M25 38h1M28 38h1M15 39h1M24 39h4M11 40h2M16 40h2M25 40h1M28 40h1M11 41h1M18 41h1M22 41h3M28 41h1M11 42h2M23 42h1M30 42h1M13 43h2M16 43h1M25 43h6M14 44h2M23 44h3M29 44h2M21 45h1M8 46h1M10 46h3M15 46h2M27 46h1M9 47h1M12 47h3M26 47h1M9 48h1M16 48h1M25 48h3M9 49h1M13 49h3M24 49h2M29 49h2M10 50h5M17 50h1M30 50h3M7 51h2M10 51h1M12 51h1M14 51h2M17 51h1M25 51h2M29 51h4M8 52h2M15 52h1M29 52h2M14 53h1M17 53h1M30 53h1M13 54h1M22 54h1M29 54h1M13 55h1M15 55h1M27 55h2M13 56h2M16 56h1M18 56h1M23 56h1M25 56h2M14 57h1M16 57h2M19 57h2M24 57h3M17 58h2M25 58h1" />
<path stroke="#d2a5b1" d="M27 35h1M17 36h1M14 37h1M29 38h1M16 39h3M28 39h3M13 40h3M18 40h1M23 40h2M29 40h1M12 41h3M31 41h1M13 42h2M15 43h1M16 44h1M26 44h3M13 45h5M25 45h4M9 46h1M13 46h2M26 46h1M8 47h1M7 48h2M16 49h2M26 49h3M32 49h1M9 50h1M15 50h2M25 50h2M29 50h1M9 51h1M11 51h1M16 51h1M33 51h1M7 52h1M16 52h2M31 52h3M8 53h1M15 53h2M22 53h1M29 53h1M31 53h2M14 54h1M23 54h1M30 54h3M12 55h1M14 55h1M23 55h1M32 55h1M15 56h1M20 56h1M27 56h2M18 57h1M27 57h3M16 58h1M19 58h1M26 58h2M19 59h1" />
<path stroke="#ddbbc4" d="M28 35h1M15 36h1M28 36h2M29 37h1M12 38h1M11 39h1M26 40h1M15 41h1M27 41h1M15 42h1M31 44h1M7 46h1M7 47h1M10 47h2M7 50h1M27 50h2M33 50h1M34 51h1M33 53h1M15 54h1M16 55h1M12 56h1M17 56h1M13 57h1M15 59h1M17 59h2M25 59h1" />
<path stroke="#e4c9d0" d="M16 36h1M30 38h1M10 40h1M10 42h1M31 42h1M31 43h1M8 45h1M6 50h1M6 51h1M13 58h1M26 59h1M16 60h1" />
<path stroke="#bb7789" d="M24 36h2M19 37h1M23 37h1M22 38h1M14 39h1M21 39h1M20 41h1M30 41h1M22 42h1M22 43h1M13 44h1M21 44h1M11 45h2M22 46h1M23 47h1M29 47h1M22 48h1M8 49h1M18 49h1M21 49h1M18 50h1M18 51h1M12 52h1M21 52h3M26 52h1M28 52h1M12 53h1M24 53h1M27 54h1M25 55h1M29 55h2M22 56h1M15 57h1M23 57h1M14 58h1M20 58h1" />
<path stroke="#c892a1" d="M26 36h2M15 37h1M17 37h1M25 37h3M18 38h1M24 38h1M26 38h2M12 39h1M19 39h1M22 39h2M21 40h2M27 40h1M21 41h1M29 41h1M18 42h1M27 42h2M11 43h1M17 44h1M22 44h1M9 45h1M18 45h1M24 45h1M29 45h2M17 46h2M21 46h1M25 46h1M28 46h2M27 47h1M17 48h1M23 48h2M28 48h2M31 48h1M22 49h2M31 49h1M24 50h1M13 51h1M10 52h1M13 52h2M9 53h2M13 53h1M21 53h1M23 53h1M28 53h1M28 54h1M18 55h1M22 55h1M26 55h1M31 55h1M19 56h1M21 56h1M24 56h1M15 58h1M24 58h1" />
<path stroke="#c18595" d="M18 37h1M24 37h1M14 38h1M19 38h1M23 38h1M13 39h1M19 40h1M30 40h1M19 41h1M29 42h1M12 43h1M10 45h1M18 47h1M28 47h1M18 48h1M30 48h1M8 50h1M11 52h1M18 52h1M18 53h1M12 54h1M11 55h1M11 56h1M29 56h1M21 57h1" />
<path stroke="#ead6dc" d="M10 41h1M32 42h1M34 52h1M33 54h1M12 57h1M28 58h1M16 59h1M18 60h1" />
<path stroke="#cdcdcf" d="M16 41h2M25 41h2M16 42h2M24 42h3M17 43h1M23 43h2M18 44h1M15 47h3M10 48h6M10 49h3M27 51h2M16 54h2M17 55h1" />
<path stroke="#52769a" d="M19 42h3M18 43h4M19 44h2M19 45h2M22 45h2M19 46h2M23 46h2M19 47h4M24 47h2M19 48h3M19 49h2M19 50h5M19 51h6M19 52h2M24 52h2M27 52h1M19 53h2M25 53h3M18 54h4M24 54h3M19 55h3M24 55h1" />
<path stroke="#f8f1f3" d="M32 43h1M17 60h1" />
</svg>
