<svg xmlns="http://www.w3.org/2000/svg" viewBox="0 -0.5 34 22" shape-rendering="crispEdges">
<metadata>Made with Pixels to Svg https://codepen.io/shshaw/pen/XbxvNj</metadata>
<path stroke="#525252" d="M2 0h1M4 0h28M1 1h1M32 1h1M4 2h1M7 2h2M12 2h5M22 2h2M25 2h1M33 2h1M30 3h1M33 3h1M2 4h1M33 4h1M31 5h1M33 5h1M31 6h1M33 6h1M31 7h1M33 7h1M31 8h1M33 8h1M31 9h1M33 9h1M2 10h1M31 10h1M33 10h1M2 11h1M31 11h1M33 11h1M31 12h1M33 12h1M33 13h1M3 14h1M30 14h1M33 14h1M5 15h1M8 15h3M22 15h3" />
<path stroke="#383838" d="M3 0h1M0 2h1M9 2h3M24 2h1M27 2h2M0 3h1M3 3h1M0 4h1M0 5h1M0 6h1M0 7h1M0 8h1M0 9h1M0 10h1M0 11h1M0 12h1M0 13h1M2 13h1M0 14h1M0 15h1M29 15h1M33 15h1M0 16h2M32 16h2M0 17h1M2 17h1M31 17h1M33 17h1M0 18h1M33 18h1M0 19h1M33 19h1M1 20h1M32 20h1M2 21h30" />
<path stroke="#a3a3a3" d="M2 1h1M11 1h3M16 1h1M25 1h1M31 1h1M3 2h1M30 2h1M31 3h1M1 4h1M32 13h1M1 14h2M32 14h1M2 15h1M31 15h1M3 16h1M11 16h2M16 16h1M30 16h1M3 17h28" />
<path stroke="#cccccc" d="M3 1h1M5 1h3M14 1h1M17 1h3M24 1h1M26 1h1M29 1h2M2 2h1M31 2h1M1 3h1M32 3h1M1 8h1M1 9h1M32 10h1M1 11h1M32 11h1M32 12h1M1 13h1M3 15h1M4 16h1M7 16h3M13 16h2M17 16h3M25 16h1M28 16h1" />
<path stroke="#e0e0e0" d="M4 1h1M27 1h2M32 5h1M32 8h1M32 9h1M1 10h1M30 15h1M5 16h2M26 16h2M29 16h1" />
<path stroke="#b8b8b8" d="M8 1h3M15 1h1M20 1h4M1 5h1M1 6h1M1 7h1M31 14h1M10 16h1M15 16h1M20 16h5" />
<path stroke="#666666" d="M1 2h1M17 2h5M26 2h1M2 5h1M2 7h1M2 8h1M2 9h1M2 12h1M31 13h1M1 15h1M4 15h1M6 15h2M11 15h11M25 15h4M32 15h1M2 16h1M31 16h1M1 17h1M32 17h1M1 18h2M30 18h3M1 19h2M30 19h3M2 20h1M31 20h1" />
<path stroke="#7a7a7a" d="M5 2h2M29 2h1M32 2h1M2 3h1M31 4h1M2 6h1M3 18h27M3 19h27M3 20h28" />
<path stroke="#fbb7ae" d="M4 3h2M27 3h1M29 4h1M3 12h1M30 12h1M3 13h1M28 13h1M30 13h1M4 14h1M6 14h10M24 14h3M28 14h2" />
<path stroke="#eb9993" d="M6 3h21M28 3h2M3 4h2M26 4h3M30 4h1M3 5h1M28 5h3M3 6h1M30 6h1M30 7h1M3 11h1M30 11h1M4 12h1M29 12h1M4 13h3M27 13h1M29 13h1M5 14h1M16 14h8M27 14h1" />
<path stroke="#ba6a67" d="M5 4h2M22 4h4M4 5h1M26 5h2M4 6h1" />
<path stroke="#bd7674" d="M7 4h5M18 4h4" />
<path stroke="#da7b78" d="M12 4h6M5 5h21M5 6h25M3 7h27M3 8h28M3 9h28M3 10h28M4 11h26M5 12h24M7 13h20" />
<path stroke="#f5f5f5" d="M32 4h1M1 12h1" />
<path stroke="#ffffff" d="M32 6h1M32 7h1" />
</svg>