<svg xmlns="http://www.w3.org/2000/svg" viewBox="0 -0.5 41 18" shape-rendering="crispEdges">
<metadata>Made with Pixels to Svg https://codepen.io/shshaw/pen/XbxvNj</metadata>
<path stroke="#565464" d="M1 0h1M3 0h1M37 0h1M39 0h1M0 1h1M40 1h1M2 2h1M38 2h1M0 3h1M3 3h1M37 3h1M40 3h1M0 14h1M3 14h1M37 14h1M40 14h1M2 15h1M38 15h1M0 16h1M40 16h1M1 17h1M3 17h1M37 17h1M39 17h1" />
<path stroke="#68657a" d="M2 0h1M4 0h2M35 0h2M38 0h1M1 1h1M39 1h1M0 2h1M3 2h6M31 2h7M40 2h1M2 3h1M38 3h1M0 4h1M2 4h1M38 4h1M40 4h1M0 5h1M2 5h1M38 5h1M40 5h1M2 6h1M38 6h1M2 7h1M38 7h1M38 8h1M2 9h1M38 9h1M2 10h1M38 10h1M2 11h1M38 11h1M0 12h1M2 12h1M38 12h1M40 12h1M0 13h1M2 13h1M38 13h1M40 13h1M2 14h1M38 14h1M0 15h1M3 15h7M32 15h6M40 15h1M1 16h1M39 16h1M2 17h1M4 17h2M35 17h2M38 17h1" />
<path stroke="#7d7a90" d="M6 0h29M2 1h1M38 1h1M1 2h1M9 2h22M39 2h1M0 6h1M40 6h1M0 7h1M40 7h1M0 8h1M2 8h1M40 8h1M0 9h1M40 9h1M0 10h1M40 10h1M0 11h1M40 11h1M1 15h1M10 15h22M39 15h1M2 16h1M38 16h1M6 17h29" />
<path stroke="#9395b4" d="M3 1h4M33 1h5M1 3h1M39 3h1M1 4h1M39 4h1M1 5h1M39 5h1M1 6h1M39 6h1M1 7h1M39 10h1M1 11h1M39 11h1M1 12h1M39 12h1M1 13h1M39 13h1M1 14h1M39 14h1M3 16h5M34 16h4" />
<path stroke="#acaec5" d="M7 1h26M39 7h1M1 8h1M39 8h1M1 9h1M39 9h1M1 10h1M8 16h26" />
<path stroke="#383838" d="M4 3h33M3 4h1M37 4h1M3 5h1M37 5h1M3 6h1M37 6h1M3 7h1M37 7h1M3 8h1M37 8h1M3 9h1M37 9h1M3 10h1M37 10h1M3 11h1M37 11h1M3 12h1M37 12h1M3 13h1M37 13h1M4 14h33" />
<path stroke="#8d688d" d="M4 4h2M35 4h2M4 5h1M36 5h1M4 12h1M36 12h1M4 13h2M35 13h2" />
<path stroke="#a07ea0" d="M6 4h29M5 5h3M34 5h2M4 6h2M35 6h2M4 7h1M35 7h2M4 8h1M36 8h1M4 9h1M36 9h1M4 10h2M36 10h1M4 11h2M35 11h2M5 12h2M33 12h3M6 13h29" />
<path stroke="#b499b4" d="M8 5h26M6 6h29M5 7h30M5 8h31M5 9h31M6 10h30M6 11h29M7 12h26" />
</svg>